<svg width="24" height="24" viewBox="0 0 24 24" fill="none" xmlns="http://www.w3.org/2000/svg">
<path d="M21.5502 6.00001H2.44737C1.7914 6.02087 1.1691 6.30303 0.712281 6.78672C0.255458 7.27041 -7.62939e-06 7.91765 -7.62939e-06 8.59135C-7.62939e-06 9.26505 0.255458 9.91229 0.712281 10.396C1.1691 10.8797 1.7914 11.1618 2.44737 11.1827H21.5526C22.2086 11.1618 22.8309 10.8797 23.2877 10.396C23.7445 9.91229 24 9.26505 24 8.59135C24 7.91765 23.7445 7.27041 23.2877 6.78672C22.8309 6.30303 22.2086 6.02087 21.5526 6.00001H21.5502ZM21.5502 13.0573H2.44737C1.7914 13.0782 1.1691 13.3603 0.712281 13.844C0.255458 14.3277 -7.62939e-06 14.975 -7.62939e-06 15.6487C-7.62939e-06 16.3224 0.255458 16.9696 0.712281 17.4533C1.1691 17.937 1.7914 18.2192 2.44737 18.24H21.5526C22.2086 18.2192 22.8309 17.937 23.2877 17.4533C23.7445 16.9696 24 16.3224 24 15.6487C24 14.975 23.7445 14.3277 23.2877 13.844C22.8309 13.3603 22.2086 13.0782 21.5526 13.0573H21.5502Z" fill="#6B4B3E"/>
</svg>
